<svg width="300" height="300" viewBox="0 0 300 300" fill="none" xmlns="http://www.w3.org/2000/svg">
<path d="M297.364 192.078C292.17 187.839 287.041 183.52 281.969 179.136C281.344 178.596 280.854 177.457 280.914 176.641C281.371 170.4 281.981 164.17 282.48 158.635C282.031 146.747 280.754 135.718 278.032 124.846C274.98 112.659 270.032 101.269 263.755 90.4679C257.414 79.5559 249.361 69.9629 240.218 61.2599C228.987 50.5689 216.198 42.2679 202.02 36.0769C200.155 35.2629 199.121 34.1559 198.694 32.0959C197.385 25.7819 195.774 19.5299 194.487 13.2109C194.047 11.0519 193.052 10.2259 190.949 10.2199C184.346 10.2009 177.743 10.0629 171.14 10.0499C156.467 10.0219 141.794 10.0229 127.121 10.0499C121.027 10.0619 114.931 10.1229 108.839 10.2959C108.019 10.3189 106.835 10.9399 106.499 11.6199C105.894 12.8439 105.757 14.3139 105.508 15.6969C104.483 21.3919 103.519 27.0979 102.451 32.7839C102.303 33.5729 101.886 34.6619 101.276 34.9569C96.5478 37.2449 91.4638 38.9189 87.0228 41.6499C79.6968 46.1559 72.3818 50.8459 65.7848 56.3269C59.2558 61.7509 53.1768 67.8789 47.7218 74.3869C42.6968 80.3819 38.4028 87.0809 34.4328 93.8489C28.7288 103.572 24.3218 113.963 21.9678 125.032C20.2468 133.125 19.0248 141.335 17.8838 149.536C16.8148 157.217 17.3758 164.902 18.5478 172.564C18.7878 174.136 18.7568 176.455 17.8168 177.383C12.9948 182.143 7.86182 186.589 2.77982 191.081C0.993819 192.659 0.620819 194.432 1.72482 196.442C3.69882 200.032 5.76682 203.572 7.81682 207.12C12.8438 215.82 17.8608 224.527 22.8928 233.224C26.2908 239.097 29.6948 244.967 33.1178 250.825C36.4418 256.514 39.9898 262.072 43.5148 267.64C43.7788 268.057 44.7898 268.387 45.2678 268.222C51.5658 266.046 57.8418 263.804 64.0978 261.508C66.3028 260.699 68.1528 260.954 69.7968 262.702C70.4228 263.368 71.1948 263.904 71.9338 264.455C82.3738 272.228 93.9008 277.957 106.075 282.413C114.908 285.646 124.072 287.649 133.394 288.737C139.456 289.444 145.613 290.232 151.666 289.892C159.891 289.431 168.051 287.865 176.252 286.887C185.856 285.742 194.77 282.233 203.529 278.522C212.94 274.535 221.688 269.209 229.891 263.039C230.683 262.443 232.13 262.152 233.075 262.419C239.362 264.201 245.608 266.129 251.84 268.099C255.777 269.344 255.837 269.462 257.944 265.869C263.497 256.4 268.98 246.889 274.477 237.387C276.078 234.62 277.675 231.852 279.273 229.084C285.594 218.135 291.906 207.182 298.29 196.27C299.416 194.346 298.899 193.331 297.363 192.078H297.364ZM288.3 198.946C282.815 208.371 277.352 217.809 271.891 227.249C269.213 231.879 266.534 236.509 263.856 241.139C260.963 246.139 258.019 251.111 255.213 256.159C254 258.341 252.652 259.029 250.135 258.123C245.468 256.441 240.678 255.096 235.923 253.662C234.281 253.167 232.609 252.727 230.918 252.471C230.388 252.391 229.664 252.887 229.182 253.299C219.273 261.776 208 268.042 195.98 272.81C181.381 278.601 166.086 281.622 150.353 281.628C140.367 281.632 130.495 280.233 120.717 277.984C106.602 274.738 93.7758 268.626 81.5808 261.073C77.4638 258.523 73.6728 255.431 69.8308 252.461C68.4608 251.402 67.2678 251.253 65.6848 251.854C59.8838 254.058 54.0218 256.104 48.2298 258.33C46.8538 258.859 46.2298 258.717 45.4648 257.385C39.8258 247.574 34.1518 237.784 28.4768 227.994C25.3658 222.627 22.2548 217.26 19.1488 211.89C16.5458 207.391 14.0748 202.813 11.3898 198.364C10.4418 196.794 10.7228 195.782 11.9468 194.663C15.7178 191.212 19.3528 187.605 23.2368 184.288C26.2768 181.692 27.9388 179.169 27.2238 174.683C24.7128 158.925 26.0658 143.275 29.7618 127.793C34.7708 106.811 44.9388 88.5949 59.4438 72.7719C68.6208 62.7609 79.3328 54.6449 91.4448 48.4859C96.5888 45.8699 101.9 43.5589 107.241 41.3679C109.334 40.5089 110.238 39.2089 110.574 37.1459C111.463 31.6879 112.507 26.2539 113.295 20.7819C113.657 18.2649 114.748 17.4759 117.281 17.5849C122.221 17.7979 127.176 17.6469 132.125 17.6469V17.7439C149.137 17.7439 166.149 17.7819 183.16 17.6969C185.358 17.6859 186.321 18.4439 186.768 20.5319C187.98 26.1899 189.419 31.7989 190.602 37.4619C191.098 39.8339 192.2 41.2199 194.54 42.1149C212.283 48.9019 227.755 59.1639 240.704 73.0819C247.863 80.7769 253.864 89.3269 258.872 98.6059C263.925 107.967 267.826 117.783 270.284 128.076C273.795 142.776 274.803 157.716 272.985 172.781C272.734 174.861 272.619 176.987 272.081 178.996C271.526 181.068 272.29 182.318 273.791 183.54C278.46 187.342 283.052 191.238 287.723 195.038C289.193 196.234 289.211 197.383 288.3 198.947V198.946Z" fill="black"/>
<path d="M175.226 30.6499L127.791 45.8189L122.49 166.373L175.226 30.6499Z" fill="black"/>
<path d="M26.418 201.008L63.272 234.503L170.325 178.818L26.418 201.008Z" fill="black"/>
<path d="M248.357 244.701L258.937 196.037L157.185 131.169L248.357 244.701Z" fill="black"/>
<path d="M107.408 183.46L59.0216 125.19L119.753 114.804L120.068 107.648L45.8916 120.334L99.3416 184.704L107.408 183.46Z" fill="black"/>
<path d="M149.895 109.648L224.39 96.9079L203.09 154.504L209.13 158.354L235.16 87.9639L152.851 102.041L149.895 109.648Z" fill="black"/>
<path d="M192.503 183.134L166.199 254.261L126.963 207.01L120.609 210.315L168.559 268.061L197.613 189.497L192.503 183.134Z" fill="black"/>
</svg>


